Dactyl Sans Extra Light.sfdir
StartChar: !
Encoding: 33 33 0
Width: 49
InSpiro: 1
        Flags: H
        LayerCount: 2
        Back
        SplineSet
3 607 m 0
7 607 l 0
7 183 l 0
3 183 l 0
3 607 l 0
Z
5 -2 m 0
6 -2 8 -1 9 0 c 0
11 1 12 3 12 5 c 0
11 6 11 8 9 9 c 0
8 11 6 11 5 12 c 0
3 12 1 11 0 9 c 0
-1 8 -1 6 -2 5 c 0
-2 3 -1 1 0 0 c 0
1 -1 3 -2 5 -2 c 0
Z
Spiro
3 607 v
7 607 v
7 183 v
3 183 v
5 -2 c
12 5 c
5 12 c
-2 5 c
0 0 z
EndSpiro
EndSplineSet
        Fore
        SplineSet
0 606 m 0
6 606 l 0
6 180 l 0
0 180 l 0
0 606 l 0
Z
3 -5 m 0
5 -5 7 -4 8 -2 c 0
10 -1 11 0 11 3 c 0
10 5 10 7 8 8 c 0
7 10 5 10 3 11 c 0
0 11 -1 10 -2 8 c 0
-4 7 -4 5 -5 3 c 0
-5 0 -4 -1 -2 -2 c 0
-1 -4 0 -5 3 -5 c 0
Z
Spiro
0 606 v
6 606 v
6 180 v
0 180 v
3 -5 c
11 3 c
3 11 c
-5 3 c
0 0 z
EndSpiro
EndSplineSet
        EndChar
StartChar: %
Encoding: 37 37 0
Width: 349
InSpiro: 1
        Flags: H
        LayerCount: 2
        Back
        SplineSet
302 607 m 0
307 607 l 0
7 3 l 0
3 3 l 0
302 607 l 0
Z
3 483 m 0
-5 494 -10 508 -12 522 c 0
-13 536 -10 551 -4 563 c 0
2 576 12 587 24 594 c 0
36 602 50 606 65 606 c 0
79 605 93 601 105 594 c 0
117 586 127 575 133 563 c 0
139 550 142 536 141 522 c 0
139 508 134 494 126 483 c 0
111 463 88 452 64 452 c 0
40 452 17 463 3 483 c 0
Z
123 486 m 0
131 496 136 509 137 523 c 0
138 536 135 550 129 562 c 0
123 574 114 585 102 592 c 0
91 599 77 603 64 603 c 0
50 602 37 599 25 591 c 0
14 584 4 574 -1 562 c 0
-6 550 -9 536 -8 523 c 0
-7 509 -2 496 6 486 c 0
19 467 41 456 64 456 c 0
87 456 109 467 123 486 c 0
Z
306 126 m 0
314 114 319 100 321 86 c 0
322 72 319 57 313 45 c 0
306 32 296 21 284 14 c 0
272 6 258 2 244 3 c 0
229 3 215 7 203 14 c 0
191 22 181 33 175 45 c 0
169 58 166 72 167 86 c 0
169 100 174 114 183 126 c 0
197 145 220 156 244 156 c 0
268 156 291 145 306 126 c 0
Z
186 123 m 0
177 112 172 99 171 85 c 0
170 72 173 58 179 46 c 0
185 34 194 23 206 16 c 0
217 9 231 5 245 6 c 0
258 6 271 9 283 17 c 0
294 24 304 34 310 46 c 0
315 58 318 72 317 85 c 0
316 99 311 112 303 123 c 0
289 141 267 152 244 152 c 0
221 152 199 141 186 123 c 0
Z
Spiro
302 607 v
307 607 v
7 3 v
3 3 v
3 483 c
65 606 c
126 483 c
123 486 c
64 603 c
6 486 c
306 126 c
244 3 c
183 126 c
186 123 c
245 6 c
303 123 c
0 0 z
EndSpiro
EndSplineSet
        Fore
        SplineSet
299 606 m 0
306 606 l 0
6 0 l 0
0 0 l 0
299 606 l 0
Z
0 481 m 0
-8 492 -13 506 -14 520 c 0
-16 535 -13 549 -6 562 c 0
0 575 9 586 22 593 c 0
34 601 48 605 63 605 c 0
77 604 91 600 103 593 c 0
115 585 125 574 132 562 c 0
138 549 141 534 139 520 c 0
138 506 133 492 125 481 c 0
110 461 86 449 62 449 c 0
38 449 14 461 0 481 c 0
Z
120 484 m 0
128 494 133 507 134 521 c 0
135 534 133 548 127 560 c 0
121 572 111 582 100 589 c 0
88 596 75 600 62 600 c 0
48 599 35 596 24 588 c 0
12 581 3 571 -2 559 c 0
-8 547 -10 534 -9 520 c 0
-8 507 -3 494 5 484 c 0
18 466 40 455 62 455 c 0
84 455 106 466 120 484 c 0
Z
305 124 m 0
313 112 318 98 319 84 c 0
321 69 318 55 311 42 c 0
305 29 295 18 282 11 c 0
270 3 256 0 242 0 c 0
227 0 213 4 201 11 c 0
189 19 179 30 172 42 c 0
166 55 163 70 165 84 c 0
166 98 171 112 180 124 c 0
194 143 218 155 242 155 c 0
266 155 290 143 305 124 c 0
Z
185 121 m 0
176 110 171 97 170 83 c 0
169 70 171 56 177 44 c 0
183 32 193 22 204 15 c 0
216 8 229 4 243 5 c 0
256 5 269 8 280 16 c 0
292 23 301 33 307 45 c 0
313 57 315 70 314 84 c 0
313 97 308 110 300 121 c 0
286 138 264 149 242 149 c 0
220 149 198 138 185 121 c 0
Z
Spiro
299 606 v
306 606 v
6 0 v
0 0 v
0 481 c
63 605 c
125 481 c
120 484 c
62 600 c
5 484 c
305 124 c
242 0 c
180 124 c
185 121 c
243 5 c
300 121 c
0 0 z
EndSpiro
EndSplineSet
        EndChar
StartChar: '
Encoding: 39 39 0
Width: 49
InSpiro: 1
        Flags: H
        LayerCount: 2
        Back
        SplineSet
3 607 m 0
7 607 l 0
7 453 l 0
3 453 l 0
3 607 l 0
Z
Spiro
3 607 v
7 607 v
7 453 v
3 453 v
0 0 z
EndSpiro
EndSplineSet
        Fore
        SplineSet
0 606 m 0
6 606 l 0
6 450 l 0
0 450 l 0
0 606 l 0
Z
Spiro
0 606 v
6 606 v
6 450 v
0 450 v
0 0 z
EndSpiro
EndSplineSet
        EndChar
StartChar: )
Encoding: 41 41 0
Width: 199
InSpiro: 1
        Flags: H
        LayerCount: 2
        Back
        SplineSet
3 605 m 0
3 609 l 0
98 539 157 422 157 305 c 0
157 187 98 70 3 1 c 0
3 5 l 0
95 74 152 189 152 305 c 0
152 420 95 535 3 605 c 0
Z
Spiro
3 605 v
3 609 v
157 305 c
3 1 v
3 5 v
152 305 c
0 0 z
EndSpiro
EndSplineSet
        Fore
        SplineSet
0 603 m 0
0 609 l 0
96 539 156 421 156 303 c 0
156 184 96 66 0 -3 c 0
0 3 l 0
92 72 149 187 149 303 c 0
149 418 92 533 0 603 c 0
Z
Spiro
0 603 v
0 609 v
156 303 c
0 -3 v
0 3 v
149 303 c
0 0 z
EndSpiro
EndSplineSet
        EndChar
StartChar: *
Encoding: 42 42 0
Width: 289
InSpiro: 1
        Flags: H
        LayerCount: 2
        Back
        SplineSet
3 403 m 0
3 407 l 0
247 407 l 0
247 403 l 0
3 403 l 0
Z
62 536 m 0
67 536 l 0
199 274 l 0
194 274 l 0
62 536 l 0
Z
194 536 m 0
199 536 l 0
67 274 l 0
62 274 l 0
194 536 l 0
Z
Spiro
3 403 v
3 407 v
247 407 v
247 403 v
62 536 v
67 536 v
199 274 v
194 274 v
194 536 v
199 536 v
67 274 v
62 274 v
0 0 z
EndSpiro
EndSplineSet
        Fore
        SplineSet
0 400 m 0
0 406 l 0
246 406 l 0
246 400 l 0
0 400 l 0
Z
59 535 m 0
66 535 l 0
198 271 l 0
191 271 l 0
59 535 l 0
Z
191 535 m 0
198 535 l 0
66 271 l 0
59 271 l 0
191 535 l 0
Z
Spiro
0 400 v
0 406 v
246 406 v
246 400 v
59 535 v
66 535 v
198 271 v
191 271 v
191 535 v
198 535 v
66 271 v
59 271 v
0 0 z
EndSpiro
EndSplineSet
        EndChar
StartChar: ,
Encoding: 44 44 0
Width: 199
InSpiro: 1
        Flags: H
        LayerCount: 2
        Back
        SplineSet
152 7 m 0
157 7 l 0
155 1 l 0
150 1 l 0
152 7 l 0
Z
Spiro
152 7 v
157 7 v
155 1 v
150 1 v
0 0 z
EndSpiro
EndSplineSet
        Fore
        SplineSet
149 6 m 0
156 6 l 0
153 -3 l 0
146 -3 l 0
149 6 l 0
Z
Spiro
149 6 v
156 6 v
153 -3 v
146 -3 v
0 0 z
EndSpiro
EndSplineSet
        EndChar
StartChar: 1
Encoding: 49 49 0
Width: 55
InSpiro: 1
        Flags: H
        LayerCount: 2
        Back
        SplineSet
7 483 m 0
3 483 l 0
6 607 l 0
11 607 l 0
11 3 l 0
6 3 l 0
6 484 l 0
7 483 l 0
Z
Spiro
7 483 v
3 483 v
6 607 v
11 607 v
11 3 v
6 3 v
6 484 v
0 0 z
EndSpiro
EndSplineSet
        Fore
        SplineSet
6 480 m 0
0 480 l 0
5 606 l 0
12 606 l 0
12 0 l 0
5 0 l 0
5 482 l 0
6 480 l 0
Z
Spiro
6 480 v
0 480 v
5 606 v
12 606 v
12 0 v
5 0 v
5 482 v
0 0 z
EndSpiro
EndSplineSet
        EndChar
StartChar: 2
Encoding: 50 50 0
Width: 349
InSpiro: 1
        Flags: H
        LayerCount: 2
        Back
        SplineSet
7 503 m 0
3 503 l 0
13 534 34 561 61 579 c 0
88 598 122 607 155 606 c 0
193 604 231 586 259 559 c 0
286 531 303 493 307 455 c 0
312 399 290 344 260 298 c 0
231 251 193 210 156 169 c 0
9 6 l 0
307 7 l 0
307 3 l 0
3 3 l 0
3 3 l 0
153 172 l 0
189 212 226 253 255 299 c 0
285 345 306 399 302 454 c 0
298 492 282 529 255 556 c 0
229 583 192 601 154 603 c 0
122 604 90 595 63 577 c 0
37 559 17 533 7 503 c 0
Z
Spiro
7 503 v
3 503 v
155 606 c
307 455 c
156 169 [
9 6 v
307 7 v
307 3 v
3 3 v
3 3 v
153 172 ]
302 454 c
154 603 c
0 0 z
EndSpiro
EndSplineSet
        Fore
        SplineSet
6 500 m 0
0 500 l 0
10 531 31 559 58 578 c 0
86 597 119 606 153 605 c 0
192 603 230 585 257 557 c 0
285 529 302 492 306 453 c 0
311 397 290 342 260 295 c 0
230 248 192 207 155 166 c 0
9 6 l 0
306 6 l 0
306 0 l 0
0 0 l 0
0 0 l 0
150 171 l 0
185 211 222 252 252 298 c 0
281 344 303 397 299 452 c 0
296 489 279 526 253 553 c 0
226 581 189 598 152 600 c 0
120 601 88 592 62 574 c 0
36 556 16 530 6 500 c 0
Z
Spiro
6 500 v
0 500 v
153 605 c
306 453 c
155 166 [
9 6 v
306 6 v
306 0 v
0 0 v
0 0 v
150 171 ]
299 452 c
152 600 c
0 0 z
EndSpiro
EndSplineSet
        EndChar
StartChar: 3
Encoding: 51 51 0
Width: 349
InSpiro: 1
        Flags: H
        LayerCount: 2
        Back
        SplineSet
7 503 m 0
3 503 l 0
13 534 33 562 61 580 c 0
88 599 122 608 155 606 c 0
193 603 230 585 257 557 c 0
284 529 301 493 307 455 c 0
310 434 309 412 304 392 c 0
299 372 288 353 273 338 c 0
258 323 239 313 218 308 c 0
198 303 177 302 156 303 c 0
152 303 l 0
152 307 l 0
156 307 l 0
176 306 196 307 216 312 c 0
236 317 254 327 269 341 c 0
283 355 294 373 299 393 c 0
304 413 304 433 302 454 c 0
296 491 280 527 254 554 c 0
227 582 191 600 154 603 c 0
122 605 89 596 63 578 c 0
36 560 16 533 7 503 c 0
Z
152 303 m 0
152 307 l 0
156 307 l 0
177 307 198 306 218 301 c 0
239 296 258 286 273 271 c 0
288 256 299 237 304 216 c 0
310 196 310 174 307 154 c 0
301 115 284 79 257 51 c 0
230 23 193 5 155 3 c 0
121 0 88 9 60 28 c 0
33 47 12 75 3 107 c 0
7 107 l 0
16 76 36 48 62 30 c 0
89 12 121 3 154 6 c 0
191 8 227 26 253 54 c 0
280 81 296 117 302 155 c 0
304 175 304 196 299 215 c 0
294 235 284 254 269 268 c 0
255 282 236 292 216 297 c 0
197 302 176 303 156 303 c 0
152 303 l 0
Z
Spiro
7 503 v
3 503 v
155 606 c
307 455 c
156 303 [
152 303 v
152 307 v
156 307 ]
302 454 c
154 603 c
152 303 v
152 307 v
156 307 ]
307 154 c
155 3 c
3 107 v
7 107 v
154 6 c
302 155 c
156 303 [
0 0 z
EndSpiro
EndSplineSet
        Fore
        SplineSet
6 500 m 0
0 500 l 0
9 531 30 560 58 579 c 0
85 598 119 607 153 605 c 0
191 602 228 583 255 556 c 0
283 528 300 491 306 453 c 0
309 432 308 410 303 389 c 0
298 369 287 350 272 335 c 0
257 320 237 310 217 305 c 0
196 300 175 299 154 300 c 0
149 300 l 0
149 306 l 0
154 306 l 0
174 305 194 306 214 311 c 0
233 316 252 325 266 340 c 0
281 354 291 372 296 391 c 0
301 411 301 432 299 452 c 0
293 489 277 525 251 552 c 0
225 579 189 597 152 600 c 0
120 602 87 593 61 575 c 0
35 557 15 530 6 500 c 0
Z
149 300 m 0
149 306 l 0
154 306 l 0
175 306 196 305 217 300 c 0
237 295 257 284 272 270 c 0
287 255 298 235 303 215 c 0
309 194 309 173 306 152 c 0
300 113 282 76 255 48 c 0
228 21 191 2 153 0 c 0
119 -2 85 7 57 26 c 0
30 45 9 73 0 106 c 0
6 106 l 0
15 75 34 48 61 29 c 0
87 11 120 2 152 5 c 0
189 7 225 25 251 52 c 0
277 79 293 115 299 153 c 0
301 173 301 193 296 213 c 0
291 233 281 251 267 265 c 0
252 279 234 289 214 294 c 0
194 299 174 300 154 300 c 0
149 300 l 0
Z
Spiro
6 500 v
0 500 v
153 605 c
306 453 c
154 300 [
149 300 v
149 306 v
154 306 ]
299 452 c
152 600 c
149 300 v
149 306 v
154 306 ]
306 152 c
153 0 c
0 106 v
6 106 v
152 5 c
299 153 c
154 300 [
0 0 z
EndSpiro
EndSplineSet
        EndChar
StartChar: 4
Encoding: 52 52 0
Width: 349
InSpiro: 1
        Flags: H
        LayerCount: 2
        Back
        SplineSet
247 3 m 0
242 3 l 0
242 597 l 0
8 157 l 0
307 157 l 0
307 153 l 0
3 153 l 0
3 153 l 0
242 607 l 0
247 607 l 0
247 3 l 0
Z
Spiro
247 3 v
242 3 v
242 597 v
8 157 v
307 157 v
307 153 v
3 153 v
3 153 v
242 607 v
247 607 v
0 0 z
EndSpiro
EndSplineSet
        Fore
        SplineSet
246 0 m 0
239 0 l 0
239 591 l 0
8 156 l 0
306 156 l 0
306 150 l 0
0 150 l 0
0 150 l 0
239 606 l 0
246 606 l 0
246 0 l 0
Z
Spiro
246 0 v
239 0 v
239 591 v
8 156 v
306 156 v
306 150 v
0 150 v
0 150 v
239 606 v
246 606 v
0 0 z
EndSpiro
EndSplineSet
        EndChar
StartChar: 5
Encoding: 53 53 0
Width: 349
InSpiro: 1
        Flags: H
        LayerCount: 2
        Back
        SplineSet
307 607 m 0
307 603 l 0
7 603 l 0
7 303 l 0
3 303 l 0
3 607 l 0
3 607 l 0
307 607 l 0
Z
7 303 m 0
3 303 l 0
11 335 32 363 60 382 c 0
87 401 121 409 155 406 c 0
200 400 242 373 268 335 c 0
295 297 306 250 307 205 c 0
307 158 295 111 269 73 c 0
242 36 200 7 155 3 c 0
121 0 87 8 59 26 c 0
32 45 11 74 3 107 c 0
7 107 l 0
15 75 35 47 61 29 c 0
88 10 121 2 154 6 c 0
198 10 239 38 265 75 c 0
290 113 301 158 302 204 c 0
302 249 290 295 265 332 c 0
239 370 199 398 154 403 c 0
121 406 88 398 62 380 c 0
35 361 15 334 7 303 c 0
Z
Spiro
307 607 v
307 603 v
7 603 v
7 303 v
3 303 v
3 607 v
3 607 v
7 303 v
3 303 v
155 406 c
307 205 c
155 3 c
3 107 v
7 107 v
154 6 c
302 204 c
154 403 c
0 0 z
EndSpiro
EndSplineSet
        Fore
        SplineSet
306 606 m 0
306 600 l 0
6 600 l 0
6 300 l 0
0 300 l 0
0 606 l 0
0 606 l 0
306 606 l 0
Z
6 300 m 0
0 300 l 0
8 332 29 361 57 380 c 0
84 399 119 408 153 405 c 0
198 400 240 372 267 334 c 0
293 296 305 249 306 203 c 0
306 156 294 109 267 71 c 0
241 33 199 4 153 0 c 0
119 -3 84 5 56 24 c 0
28 43 8 73 0 106 c 0
6 106 l 0
14 74 33 46 60 28 c 0
86 9 119 1 152 5 c 0
196 9 237 37 262 74 c 0
287 111 298 157 299 202 c 0
299 247 288 292 262 330 c 0
237 367 196 395 152 400 c 0
120 403 86 395 60 377 c 0
33 358 14 331 6 300 c 0
Z
Spiro
306 606 v
306 600 v
6 600 v
6 300 v
0 300 v
0 606 v
0 606 v
6 300 v
0 300 v
153 405 c
306 203 c
153 0 c
0 106 v
6 106 v
152 5 c
299 202 c
152 400 c
0 0 z
EndSpiro
EndSplineSet
        EndChar
StartChar: 6
Encoding: 54 54 0
Width: 349
InSpiro: 1
        Flags: H
        LayerCount: 2
        Back
        SplineSet
307 503 m 0
302 503 l 0
295 535 275 564 248 582 c 0
221 601 187 608 155 603 c 0
125 597 97 581 76 560 c 0
55 538 40 511 29 483 c 0
9 426 8 364 7 304 c 0
4 241 1 178 21 119 c 0
31 89 47 62 70 41 c 0
93 20 123 6 155 6 c 0
178 5 201 12 220 23 c 0
240 35 257 52 270 71 c 0
295 110 303 157 302 204 c 0
300 248 288 294 263 331 c 0
251 350 235 366 216 379 c 0
197 391 176 400 154 403 c 0
121 407 88 398 61 380 c 0
34 362 15 334 7 303 c 0
3 303 l 0
11 335 31 364 59 383 c 0
87 401 121 410 155 406 c 0
200 400 241 371 267 334 c 0
293 296 305 250 307 205 c 0
308 157 299 108 273 68 c 0
260 49 242 32 222 20 c 0
201 8 177 2 154 3 c 0
122 4 92 18 69 39 c 0
45 60 29 88 18 118 c 0
-2 177 0 242 3 305 c 0
5 365 6 428 27 485 c 0
37 514 53 541 75 562 c 0
96 584 124 600 154 606 c 0
187 612 223 604 251 585 c 0
279 566 300 536 307 503 c 0
Z
Spiro
307 503 v
302 503 v
155 603 c
7 304 c
155 6 c
302 204 c
154 403 c
7 303 v
3 303 v
155 406 c
307 205 c
154 3 c
3 305 c
154 606 c
0 0 z
EndSpiro
EndSplineSet
        Fore
        SplineSet
306 500 m 0
299 500 l 0
292 532 273 561 246 579 c 0
219 598 185 605 153 600 c 0
123 594 96 578 74 557 c 0
53 535 38 509 28 480 c 0
8 423 7 362 6 302 c 0
3 240 0 176 20 118 c 0
30 88 46 61 69 40 c 0
92 19 122 5 153 5 c 0
175 4 198 11 218 22 c 0
238 34 254 51 267 70 c 0
292 108 300 156 299 202 c 0
297 246 286 291 261 329 c 0
248 347 232 363 214 376 c 0
195 388 174 397 152 400 c 0
120 403 86 395 60 377 c 0
33 359 13 331 6 300 c 0
0 300 l 0
8 332 28 362 56 381 c 0
84 400 119 409 153 405 c 0
198 399 239 370 265 333 c 0
291 295 304 248 306 203 c 0
307 155 298 105 272 66 c 0
258 46 241 29 220 17 c 0
199 5 175 0 152 0 c 0
120 1 90 15 66 36 c 0
43 57 26 85 16 115 c 0
-5 174 -2 239 0 303 c 0
2 364 3 426 24 484 c 0
35 512 51 539 72 561 c 0
94 583 121 599 152 605 c 0
185 611 222 603 250 584 c 0
279 564 299 533 306 500 c 0
Z
Spiro
306 500 v
299 500 v
153 600 c
6 302 c
153 5 c
299 202 c
152 400 c
6 300 v
0 300 v
153 405 c
306 203 c
152 0 c
0 303 c
152 605 c
0 0 z
EndSpiro
EndSplineSet
        EndChar
StartChar: 9
Encoding: 57 57 0
Width: 349
InSpiro: 1
        Flags: H
        LayerCount: 2
        Back
        SplineSet
157 3 m 0
152 3 l 0
229 86 282 192 302 305 c 0
310 354 313 405 302 454 c 0
293 490 277 525 252 553 c 0
226 581 191 600 154 603 c 0
114 605 75 589 47 561 c 0
20 533 5 494 7 455 c 0
8 416 24 378 51 351 c 0
78 323 116 307 155 306 c 0
186 305 218 314 244 332 c 0
271 350 291 377 302 407 c 0
307 407 l 0
295 375 274 348 247 330 c 0
220 311 186 301 154 303 c 0
114 304 76 320 48 348 c 0
20 376 4 414 3 454 c 0
1 494 17 535 45 564 c 0
73 592 114 608 155 606 c 0
193 603 229 583 255 555 c 0
281 528 298 492 307 455 c 0
318 405 315 353 307 304 c 0
286 192 234 86 157 3 c 0
Z
Spiro
157 3 v
152 3 v
302 305 c
302 454 c
154 603 c
7 455 c
155 306 c
302 407 v
307 407 v
154 303 c
3 454 c
155 606 c
307 455 c
307 304 c
0 0 z
EndSpiro
EndSplineSet
        Fore
        SplineSet
156 0 m 0
149 0 l 0
226 83 279 190 299 303 c 0
307 352 310 403 299 452 c 0
290 488 274 523 249 550 c 0
224 578 189 597 152 600 c 0
113 602 73 586 46 559 c 0
19 531 4 491 6 453 c 0
7 414 23 376 50 349 c 0
77 322 114 306 153 305 c 0
184 304 216 313 242 331 c 0
268 349 288 376 299 406 c 0
306 406 l 0
295 374 273 346 246 327 c 0
218 308 185 298 152 300 c 0
112 301 73 318 45 345 c 0
18 373 1 412 0 452 c 0
-1 492 14 533 42 562 c 0
71 591 112 607 153 605 c 0
191 602 227 582 253 554 c 0
280 526 297 490 306 453 c 0
317 403 314 351 306 302 c 0
285 189 233 83 156 0 c 0
Z
Spiro
156 0 v
149 0 v
299 303 c
299 452 c
152 600 c
6 453 c
153 305 c
299 406 v
306 406 v
152 300 c
0 452 c
153 605 c
306 453 c
306 302 c
0 0 z
EndSpiro
EndSplineSet
        EndChar
StartChar: C
Encoding: 67 67 0
Width: 349
InSpiro: 1
        Flags: H
        LayerCount: 2
        Back
        SplineSet
307 503 m 0
302 503 l 0
295 534 275 563 248 582 c 0
221 600 187 608 155 603 c 0
125 598 97 582 75 561 c 0
54 539 38 513 28 484 c 0
7 427 7 365 7 305 c 0
6 244 6 181 27 124 c 0
38 96 53 69 75 47 c 0
97 26 124 10 155 6 c 0
187 0 221 8 248 27 c 0
275 45 295 74 302 107 c 0
307 107 l 0
300 73 279 43 251 24 c 0
223 4 187 -2 154 3 c 0
123 8 95 23 74 45 c 0
52 66 36 93 25 122 c 0
3 179 3 242 3 304 c 0
2 365 3 428 25 485 c 0
35 514 51 541 73 563 c 0
95 584 123 600 154 606 c 0
187 611 223 604 251 585 c 0
279 566 299 536 307 503 c 0
Z
Spiro
307 503 v
302 503 v
155 603 c
7 305 c
155 6 c
302 107 v
307 107 v
154 3 c
3 304 c
154 606 c
0 0 z
EndSpiro
EndSplineSet
        Fore
        SplineSet
306 500 m 0
299 500 l 0
292 531 272 560 246 579 c 0
219 597 185 605 153 600 c 0
123 595 95 579 74 558 c 0
52 537 37 510 26 481 c 0
6 425 6 363 6 303 c 0
5 242 5 180 26 123 c 0
36 94 52 68 73 46 c 0
95 25 123 9 153 5 c 0
185 0 219 7 246 26 c 0
273 44 292 73 299 106 c 0
306 106 l 0
299 72 278 41 250 21 c 0
222 2 185 -5 152 0 c 0
121 5 93 21 71 42 c 0
49 64 33 91 22 119 c 0
1 177 0 240 0 302 c 0
0 363 0 426 22 484 c 0
33 513 49 540 71 562 c 0
93 583 121 599 152 605 c 0
185 610 221 603 250 583 c 0
278 564 299 533 306 500 c 0
Z
Spiro
306 500 v
299 500 v
153 600 c
6 303 c
153 5 c
299 106 v
306 106 v
152 0 c
0 302 c
152 605 c
0 0 z
EndSpiro
EndSplineSet
        EndChar
StartChar: D
Encoding: 68 68 0
Width: 349
InSpiro: 1
        Flags: H
        LayerCount: 2
        Back
        SplineSet
3 3 m 0
3 3 l 0
3 607 l 0
3 607 l 0
155 607 l 0
175 607 197 606 217 601 c 0
237 596 256 586 271 571 c 0
286 556 296 537 301 517 c 0
306 497 307 475 307 455 c 0
307 155 l 0
307 134 306 112 301 92 c 0
296 72 286 53 271 38 c 0
256 23 237 13 217 8 c 0
197 3 175 2 155 3 c 0
3 3 l 0
Z
155 7 m 0
175 7 195 7 215 12 c 0
235 17 253 27 268 41 c 0
282 56 292 74 296 94 c 0
301 114 302 134 302 155 c 0
302 455 l 0
302 475 301 495 296 515 c 0
291 535 282 554 268 568 c 0
253 582 235 592 215 597 c 0
195 602 175 603 155 603 c 0
7 603 l 0
7 7 l 0
155 7 l 0
Z
Spiro
3 3 v
3 3 v
3 607 v
3 607 v
155 607 ]
307 455 [
307 155 ]
155 3 [
155 7 ]
302 155 [
302 455 ]
155 603 [
7 603 v
7 7 v
0 0 z
EndSpiro
EndSplineSet
        Fore
        SplineSet
0 0 m 0
0 0 l 0
0 606 l 0
0 606 l 0
153 606 l 0
174 606 195 605 215 600 c 0
236 595 255 585 270 570 c 0
285 555 295 536 300 515 c 0
305 495 306 474 306 453 c 0
306 153 l 0
306 131 305 110 300 90 c 0
295 69 285 50 270 35 c 0
255 20 236 10 215 5 c 0
195 0 174 0 153 0 c 0
0 0 l 0
Z
153 6 m 0
173 5 193 6 213 11 c 0
232 16 251 25 265 40 c 0
279 54 289 73 293 92 c 0
298 112 299 132 299 153 c 0
299 453 l 0
299 473 298 493 293 513 c 0
289 532 279 551 265 565 c 0
251 580 232 589 213 594 c 0
193 599 173 600 153 600 c 0
6 600 l 0
6 6 l 0
153 6 l 0
Z
Spiro
0 0 v
0 0 v
0 606 v
0 606 v
153 606 ]
306 453 [
306 153 ]
153 0 [
153 6 ]
299 153 [
299 453 ]
153 600 [
6 600 v
6 6 v
0 0 z
EndSpiro
EndSplineSet
        EndChar
StartChar: F
Encoding: 70 70 0
Width: 349
InSpiro: 1
        Flags: H
        LayerCount: 2
        Back
        SplineSet
307 607 m 0
307 603 l 0
7 603 l 0
7 3 l 0
3 3 l 0
3 607 l 0
3 607 l 0
307 607 l 0
Z
3 303 m 0
3 307 l 0
207 307 l 0
207 303 l 0
3 303 l 0
Z
Spiro
307 607 v
307 603 v
7 603 v
7 3 v
3 3 v
3 607 v
3 607 v
3 303 v
3 307 v
207 307 v
207 303 v
0 0 z
EndSpiro
EndSplineSet
        Fore
        SplineSet
306 606 m 0
306 600 l 0
6 600 l 0
6 0 l 0
0 0 l 0
0 606 l 0
0 606 l 0
306 606 l 0
Z
0 300 m 0
0 306 l 0
206 306 l 0
206 300 l 0
0 300 l 0
Z
Spiro
306 606 v
306 600 v
6 600 v
6 0 v
0 0 v
0 606 v
0 606 v
0 300 v
0 306 v
206 306 v
206 300 v
0 0 z
EndSpiro
EndSplineSet
        EndChar
StartChar: G
Encoding: 71 71 0
Width: 349
InSpiro: 1
        Flags: H
        LayerCount: 2
        Back
        SplineSet
307 503 m 0
302 503 l 0
294 534 275 563 248 582 c 0
221 600 187 608 155 603 c 0
124 598 97 582 75 561 c 0
53 540 37 513 27 485 c 0
5 428 5 365 7 305 c 0
8 244 10 183 31 127 c 0
42 99 57 72 78 51 c 0
99 29 125 13 155 6 c 0
175 1 196 0 216 6 c 0
236 11 255 22 269 38 c 0
282 53 292 72 296 93 c 0
301 113 302 134 302 155 c 0
302 303 l 0
152 303 l 0
152 307 l 0
307 307 l 0
307 307 l 0
307 155 l 0
307 133 306 111 301 91 c 0
296 70 286 50 272 34 c 0
257 18 238 7 217 2 c 0
196 -2 174 -2 154 3 c 0
124 10 98 27 77 48 c 0
56 70 40 97 29 125 c 0
7 181 4 243 3 304 c 0
1 365 2 428 23 486 c 0
34 515 51 542 73 563 c 0
95 585 123 600 154 606 c 0
187 611 222 603 250 584 c 0
279 565 299 536 307 503 c 0
Z
Spiro
307 503 v
302 503 v
155 603 c
7 305 c
155 6 c
302 155 [
302 303 v
152 303 v
152 307 v
307 307 v
307 307 v
307 155 ]
154 3 c
3 304 c
154 606 c
0 0 z
EndSpiro
EndSplineSet
        Fore
        SplineSet
306 500 m 0
299 500 l 0
292 531 272 560 245 578 c 0
219 597 185 605 153 600 c 0
123 595 95 579 73 558 c 0
52 537 36 510 25 482 c 0
4 425 4 363 6 303 c 0
7 243 9 182 30 126 c 0
40 97 55 71 76 49 c 0
97 28 123 11 153 5 c 0
173 0 194 0 214 5 c 0
234 10 252 21 266 37 c 0
280 52 289 71 294 91 c 0
298 111 299 132 299 153 c 0
299 300 l 0
149 300 l 0
149 306 l 0
306 306 l 0
306 306 l 0
306 153 l 0
306 131 305 109 300 88 c 0
295 67 285 47 271 31 c 0
256 15 237 4 216 0 c 0
195 -6 172 -5 152 0 c 0
122 7 95 24 74 46 c 0
53 67 37 94 26 122 c 0
4 179 1 241 0 302 c 0
-1 363 0 427 21 485 c 0
32 514 48 541 70 562 c 0
93 584 121 599 152 605 c 0
185 610 221 602 250 583 c 0
278 564 298 533 306 500 c 0
Z
Spiro
306 500 v
299 500 v
153 600 c
6 303 c
153 5 c
299 153 [
299 300 v
149 300 v
149 306 v
306 306 v
306 306 v
306 153 ]
152 0 c
0 302 c
152 605 c
0 0 z
EndSpiro
EndSplineSet
        EndChar
StartChar: H
Encoding: 72 72 0
Width: 349
InSpiro: 1
        Flags: H
        LayerCount: 2
        Back
        SplineSet
7 3 m 0
3 3 l 0
3 607 l 0
7 607 l 0
7 3 l 0
Z
3 303 m 0
3 307 l 0
307 307 l 0
307 303 l 0
3 303 l 0
Z
307 3 m 0
302 3 l 0
302 607 l 0
307 607 l 0
307 3 l 0
Z
Spiro
7 3 v
3 3 v
3 607 v
7 607 v
3 303 v
3 307 v
307 307 v
307 303 v
307 3 v
302 3 v
302 607 v
307 607 v
0 0 z
EndSpiro
EndSplineSet
        Fore
        SplineSet
6 0 m 0
0 0 l 0
0 606 l 0
6 606 l 0
6 0 l 0
Z
0 300 m 0
0 306 l 0
306 306 l 0
306 300 l 0
0 300 l 0
Z
306 0 m 0
299 0 l 0
299 606 l 0
306 606 l 0
306 0 l 0
Z
Spiro
6 0 v
0 0 v
0 606 v
6 606 v
0 300 v
0 306 v
306 306 v
306 300 v
306 0 v
299 0 v
299 606 v
306 606 v
0 0 z
EndSpiro
EndSplineSet
        EndChar
StartChar: M
Encoding: 77 77 0
Width: 499
InSpiro: 1
        Flags: H
        LayerCount: 2
        Back
        SplineSet
7 3 m 0
3 3 l 0
3 607 l 0
7 607 l 0
230 10 l 0
452 607 l 0
457 607 l 0
457 3 l 0
452 3 l 0
452 593 l 0
232 3 l 0
227 3 l 0
7 593 l 0
7 3 l 0
Z
Spiro
7 3 v
3 3 v
3 607 v
7 607 v
230 10 v
452 607 v
457 607 v
457 3 v
452 3 v
452 593 v
232 3 v
227 3 v
7 593 v
0 0 z
EndSpiro
EndSplineSet
        Fore
        SplineSet
6 0 m 0
0 0 l 0
0 606 l 0
6 606 l 0
228 11 l 0
449 606 l 0
456 606 l 0
456 0 l 0
449 0 l 0
449 586 l 0
231 0 l 0
224 0 l 0
6 586 l 0
6 0 l 0
Z
Spiro
6 0 v
0 0 v
0 606 v
6 606 v
228 11 v
449 606 v
456 606 v
456 0 v
449 0 v
449 586 v
231 0 v
224 0 v
6 586 v
0 0 z
EndSpiro
EndSplineSet
        EndChar
StartChar: N
Encoding: 78 78 0
Width: 349
InSpiro: 1
        Flags: H
        LayerCount: 2
        Back
        SplineSet
7 3 m 0
3 3 l 0
3 607 l 0
7 607 l 0
302 13 l 0
302 607 l 0
307 607 l 0
307 3 l 0
302 3 l 0
7 596 l 0
7 3 l 0
Z
Spiro
7 3 v
3 3 v
3 607 v
7 607 v
302 13 v
302 607 v
307 607 v
307 3 v
302 3 v
7 596 v
0 0 z
EndSpiro
EndSplineSet
        Fore
        SplineSet
6 0 m 0
0 0 l 0
0 606 l 0
6 606 l 0
299 15 l 0
299 606 l 0
306 606 l 0
306 0 l 0
299 0 l 0
6 590 l 0
6 0 l 0
Z
Spiro
6 0 v
0 0 v
0 606 v
6 606 v
299 15 v
299 606 v
306 606 v
306 0 v
299 0 v
6 590 v
0 0 z
EndSpiro
EndSplineSet
        EndChar
StartChar: O
Encoding: 79 79 0
Width: 349
InSpiro: 1
        Flags: H
        LayerCount: 2
        Back
        SplineSet
7 304 m 0
7 242 8 180 26 121 c 0
36 92 50 64 72 42 c 0
93 21 123 6 154 6 c 0
184 5 214 20 236 42 c 0
258 64 272 92 282 121 c 0
301 180 302 243 302 305 c 0
301 366 300 429 282 487 c 0
272 516 257 544 236 566 c 0
214 588 184 603 154 603 c 0
123 602 93 587 72 566 c 0
50 544 35 516 26 486 c 0
7 428 6 365 7 304 c 0
Z
155 606 m 0
186 606 216 591 238 569 c 0
260 547 275 518 285 489 c 0
305 430 307 366 307 304 c 0
306 241 305 178 285 119 c 0
275 89 260 61 238 39 c 0
216 17 186 3 155 3 c 0
123 2 93 17 71 39 c 0
49 61 34 90 24 119 c 0
4 178 2 242 3 305 c 0
3 367 4 430 24 489 c 0
34 519 49 547 71 569 c 0
93 591 123 605 155 606 c 0
Z
Spiro
7 304 o
154 6 c
302 305 o
154 603 c
155 606 c
307 304 o
155 3 c
3 305 o
0 0 z
EndSpiro
EndSplineSet
        Fore
        SplineSet
6 302 m 0
6 240 6 178 25 120 c 0
34 91 49 63 70 41 c 0
92 20 121 5 152 5 c 0
182 4 212 19 233 41 c 0
255 63 270 91 279 120 c 0
298 179 299 241 299 303 c 0
298 364 298 426 279 484 c 0
269 513 255 541 233 563 c 0
212 585 182 600 152 600 c 0
121 599 91 584 70 563 c 0
48 541 34 513 25 484 c 0
6 425 5 363 6 302 c 0
Z
153 605 m 0
184 605 214 590 236 568 c 0
259 546 274 517 284 488 c 0
304 428 306 364 306 302 c 0
305 239 304 175 284 116 c 0
274 86 259 58 236 36 c 0
214 14 184 0 153 0 c 0
121 0 91 14 69 36 c 0
46 58 31 87 21 116 c 0
1 176 0 240 0 303 c 0
0 365 1 429 21 488 c 0
31 518 46 546 69 568 c 0
91 590 121 604 153 605 c 0
Z
Spiro
6 302 o
152 5 c
299 303 o
152 600 c
153 605 c
306 302 o
153 0 c
0 303 o
0 0 z
EndSpiro
EndSplineSet
        EndChar
StartChar: V
Encoding: 86 86 0
Width: 349
InSpiro: 1
        Flags: H
        LayerCount: 2
        Back
        SplineSet
3 607 m 0
7 607 l 0
155 13 l 0
302 607 l 0
307 607 l 0
157 3 l 0
152 3 l 0
3 607 l 0
Z
Spiro
3 607 v
7 607 v
155 13 v
302 607 v
307 607 v
157 3 v
152 3 v
0 0 z
EndSpiro
EndSplineSet
        Fore
        SplineSet
0 606 m 0
6 606 l 0
153 15 l 0
299 606 l 0
306 606 l 0
156 0 l 0
149 0 l 0
0 606 l 0
Z
Spiro
0 606 v
6 606 v
153 15 v
299 606 v
306 606 v
156 0 v
149 0 v
0 0 z
EndSpiro
EndSplineSet
        EndChar
StartChar: X
Encoding: 88 88 0
Width: 349
InSpiro: 1
        Flags: H
        LayerCount: 2
        Back
        SplineSet
3 607 m 0
7 607 l 0
307 3 l 0
302 3 l 0
3 607 l 0
Z
302 607 m 0
307 607 l 0
7 3 l 0
3 3 l 0
302 607 l 0
Z
Spiro
3 607 v
7 607 v
307 3 v
302 3 v
302 607 v
307 607 v
7 3 v
3 3 v
0 0 z
EndSpiro
EndSplineSet
        Fore
        SplineSet
0 606 m 0
6 606 l 0
306 0 l 0
299 0 l 0
0 606 l 0
Z
299 606 m 0
306 606 l 0
6 0 l 0
0 0 l 0
299 606 l 0
Z
Spiro
0 606 v
6 606 v
306 0 v
299 0 v
299 606 v
306 606 v
6 0 v
0 0 v
0 0 z
EndSpiro
EndSplineSet
        EndChar
StartChar: Y
Encoding: 89 89 0
Width: 349
InSpiro: 1
        Flags: H
        LayerCount: 2
        Back
        SplineSet
3 607 m 0
7 607 l 0
155 309 l 0
302 607 l 0
307 607 l 0
157 303 l 0
152 303 l 0
3 607 l 0
Z
152 307 m 0
157 307 l 0
157 3 l 0
152 3 l 0
152 307 l 0
Z
Spiro
3 607 v
7 607 v
155 309 v
302 607 v
307 607 v
157 303 v
152 303 v
152 307 v
157 307 v
157 3 v
152 3 v
0 0 z
EndSpiro
EndSplineSet
        Fore
        SplineSet
0 606 m 0
6 606 l 0
153 309 l 0
299 606 l 0
306 606 l 0
156 300 l 0
149 300 l 0
0 606 l 0
Z
149 306 m 0
156 306 l 0
156 0 l 0
149 0 l 0
149 306 l 0
Z
Spiro
0 606 v
6 606 v
153 309 v
299 606 v
306 606 v
156 300 v
149 300 v
149 306 v
156 306 v
156 0 v
149 0 v
0 0 z
EndSpiro
EndSplineSet
        EndChar
StartChar: b
Encoding: 98 98 0
Width: 349
InSpiro: 1
        Flags: H
        LayerCount: 2
        Back
        SplineSet
3 607 m 0
7 607 l 0
7 3 l 0
3 3 l 0
3 607 l 0
Z
7 263 m 0
3 263 l 0
12 294 33 322 60 341 c 0
88 359 122 368 155 366 c 0
198 362 239 339 266 305 c 0
293 271 307 227 307 184 c 0
306 140 293 97 265 63 c 0
238 29 198 6 155 3 c 0
121 0 88 9 60 28 c 0
33 46 12 75 3 107 c 0
7 107 l 0
16 76 36 48 62 30 c 0
89 12 121 3 154 6 c 0
196 9 236 32 262 65 c 0
289 99 302 142 302 185 c 0
301 227 288 270 262 303 c 0
235 336 196 359 154 363 c 0
122 365 89 356 62 338 c 0
36 320 16 293 7 263 c 0
Z
Spiro
3 607 v
7 607 v
7 3 v
3 3 v
7 263 v
3 263 v
155 366 c
307 184 c
155 3 c
3 107 v
7 107 v
154 6 c
302 185 c
154 363 c
0 0 z
EndSpiro
EndSplineSet
        Fore
        SplineSet
0 606 m 0
6 606 l 0
6 0 l 0
0 0 l 0
0 606 l 0
Z
6 260 m 0
0 260 l 0
9 292 30 320 57 339 c 0
85 358 119 367 153 365 c 0
196 361 237 338 264 303 c 0
292 269 306 225 306 182 c 0
305 138 291 94 264 60 c 0
237 26 196 3 153 0 c 0
119 -2 85 6 57 25 c 0
30 44 9 73 0 106 c 0
6 106 l 0
14 75 34 47 61 29 c 0
87 11 120 2 152 5 c 0
194 8 233 31 259 64 c 0
286 97 299 140 299 183 c 0
298 225 285 267 259 300 c 0
233 333 194 356 152 360 c 0
120 362 87 353 61 335 c 0
34 317 15 290 6 260 c 0
Z
Spiro
0 606 v
6 606 v
6 0 v
0 0 v
6 260 v
0 260 v
153 365 c
306 182 c
153 0 c
0 106 v
6 106 v
152 5 c
299 183 c
152 360 c
0 0 z
EndSpiro
EndSplineSet
        EndChar
StartChar: c
Encoding: 99 99 0
Width: 349
InSpiro: 1
        Flags: H
        LayerCount: 2
        Back
        SplineSet
307 265 m 0
302 265 l 0
292 295 271 321 245 339 c 0
219 357 186 365 155 363 c 0
112 359 73 336 46 303 c 0
20 270 7 227 7 185 c 0
6 142 20 99 46 66 c 0
72 32 112 9 155 6 c 0
186 3 219 11 245 29 c 0
272 47 292 74 302 105 c 0
307 105 l 0
296 73 275 45 248 27 c 0
220 8 186 0 154 3 c 0
111 6 70 30 43 63 c 0
16 97 3 140 3 184 c 0
2 227 16 270 43 304 c 0
70 338 110 362 154 366 c 0
186 368 220 360 248 342 c 0
275 324 296 296 307 265 c 0
Z
Spiro
307 265 v
302 265 v
155 363 c
7 185 c
155 6 c
302 105 v
307 105 v
154 3 c
3 184 c
154 366 c
0 0 z
EndSpiro
EndSplineSet
        Fore
        SplineSet
306 263 m 0
299 263 l 0
289 292 269 319 242 336 c 0
216 354 184 362 153 360 c 0
111 356 71 333 45 300 c 0
19 267 6 225 6 183 c 0
5 140 18 97 45 64 c 0
71 31 110 8 153 5 c 0
184 2 216 10 243 28 c 0
269 46 289 72 299 103 c 0
306 103 l 0
295 71 274 42 247 24 c 0
219 5 185 -2 152 0 c 0
108 3 68 27 41 61 c 0
13 94 0 138 0 182 c 0
0 225 13 269 40 303 c 0
67 337 108 361 152 365 c 0
185 367 219 359 246 340 c 0
274 322 295 294 306 263 c 0
Z
Spiro
306 263 v
299 263 v
153 360 c
6 183 c
153 5 c
299 103 v
306 103 v
152 0 c
0 182 c
152 365 c
0 0 z
EndSpiro
EndSplineSet
        EndChar
StartChar: e
Encoding: 101 101 0
Width: 349
InSpiro: 1
        Flags: H
        LayerCount: 2
        Back
        SplineSet
4 183 m 0
4 187 l 0
303 187 l 0
316 217 316 253 303 284 c 0
291 311 269 334 242 348 c 0
215 362 184 367 155 363 c 0
113 357 74 334 48 301 c 0
21 268 7 226 7 184 c 0
6 141 19 98 46 65 c 0
72 31 112 9 155 6 c 0
186 3 219 12 245 30 c 0
272 47 292 74 302 105 c 0
307 105 l 0
296 73 275 45 248 27 c 0
220 9 186 0 154 3 c 0
110 6 69 29 42 63 c 0
15 97 2 141 3 185 c 0
3 227 18 270 45 303 c 0
72 337 111 360 154 366 c 0
184 370 216 365 243 350 c 0
271 336 293 313 306 285 c 0
320 253 320 215 307 183 c 0
307 183 l 0
4 183 l 0
Z
Spiro
4 183 v
4 187 v
303 187 v
303 284 c
155 363 c
7 184 c
155 6 c
302 105 v
307 105 v
154 3 c
3 185 c
154 366 c
306 285 c
307 183 v
307 183 v
0 0 z
EndSpiro
EndSplineSet
        Fore
        SplineSet
2 180 m 0
2 186 l 0
300 186 l 0
312 215 312 251 300 281 c 0
288 308 266 331 240 345 c 0
213 359 182 364 153 360 c 0
111 354 72 331 46 298 c 0
20 265 6 223 6 182 c 0
5 139 18 97 44 63 c 0
71 30 110 8 153 5 c 0
184 2 216 11 242 28 c 0
269 46 289 72 299 103 c 0
306 103 l 0
295 71 274 43 246 24 c 0
219 6 185 -2 152 0 c 0
108 3 67 26 40 61 c 0
12 95 0 139 0 183 c 0
0 226 15 269 42 302 c 0
69 335 109 359 152 365 c 0
182 369 214 364 242 349 c 0
269 335 292 312 305 284 c 0
319 251 319 212 306 180 c 0
306 180 l 0
2 180 l 0
Z
Spiro
2 180 v
2 186 v
300 186 v
300 281 c
153 360 c
6 182 c
153 5 c
299 103 v
306 103 v
152 0 c
0 183 c
152 365 c
305 284 c
306 180 v
306 180 v
0 0 z
EndSpiro
EndSplineSet
        EndChar
StartChar: f
Encoding: 102 102 0
Width: 199
InSpiro: 1
        Flags: H
        LayerCount: 2
        Back
        SplineSet
157 607 m 0
157 603 l 0
131 599 106 588 85 573 c 0
64 558 47 538 34 515 c 0
22 493 14 468 11 442 c 0
7 416 6 390 7 365 c 0
7 3 l 0
3 3 l 0
3 365 l 0
3 391 3 417 7 444 c 0
11 470 18 496 31 519 c 0
44 542 62 562 83 577 c 0
105 593 130 603 157 607 c 0
Z
3 363 m 0
3 367 l 0
157 367 l 0
157 363 l 0
3 363 l 0
Z
Spiro
157 607 v
157 603 v
7 365 [
7 3 v
3 3 v
3 365 ]
3 363 v
3 367 v
157 367 v
157 363 v
0 0 z
EndSpiro
EndSplineSet
        Fore
        SplineSet
156 606 m 0
156 600 l 0
130 596 105 586 84 571 c 0
63 556 46 536 33 513 c 0
21 490 13 465 10 440 c 0
6 414 5 388 6 363 c 0
6 0 l 0
0 0 l 0
0 363 l 0
0 389 0 416 4 442 c 0
8 469 16 495 29 518 c 0
42 541 60 562 82 577 c 0
104 592 129 602 156 606 c 0
Z
0 360 m 0
0 366 l 0
156 366 l 0
156 360 l 0
0 360 l 0
Z
Spiro
156 606 v
156 600 v
6 363 [
6 0 v
0 0 v
0 363 ]
0 360 v
0 366 v
156 366 v
156 360 v
0 0 z
EndSpiro
EndSplineSet
        EndChar
StartChar: i
Encoding: 105 105 0
Width: 49
InSpiro: 1
        Flags: H
        LayerCount: 2
        Back
        SplineSet
3 367 m 0
7 367 l 0
7 3 l 0
3 3 l 0
3 367 l 0
Z
5 478 m 0
6 477 8 478 9 480 c 0
11 481 12 483 12 485 c 0
11 486 11 488 9 489 c 0
8 491 6 491 5 492 c 0
3 492 1 491 0 489 c 0
-1 488 -1 486 -2 485 c 0
-2 483 -1 481 0 480 c 0
1 478 3 477 5 478 c 0
Z
Spiro
3 367 v
7 367 v
7 3 v
3 3 v
5 478 c
12 485 c
5 492 c
-2 485 c
0 0 z
EndSpiro
EndSplineSet
        Fore
        SplineSet
0 366 m 0
6 366 l 0
6 0 l 0
0 0 l 0
0 366 l 0
Z
3 475 m 0
5 474 7 475 8 477 c 0
10 478 11 480 11 483 c 0
10 485 10 487 8 488 c 0
7 490 5 490 3 491 c 0
0 491 -1 490 -2 488 c 0
-4 487 -4 485 -5 483 c 0
-5 480 -4 478 -2 477 c 0
-1 475 0 474 3 475 c 0
Z
Spiro
0 366 v
6 366 v
6 0 v
0 0 v
3 475 c
11 483 c
3 491 c
-5 483 c
0 0 z
EndSpiro
EndSplineSet
        EndChar
StartChar: n
Encoding: 110 110 0
Width: 289
InSpiro: 1
        Flags: H
        LayerCount: 2
        Back
        SplineSet
3 367 m 0
7 367 l 0
7 3 l 0
3 3 l 0
3 367 l 0
Z
7 3 m 0
3 3 l 0
3 265 l 0
5 299 24 333 54 352 c 0
83 372 121 377 155 366 c 0
172 360 188 350 201 337 c 0
214 324 224 309 231 292 c 0
245 258 247 221 247 185 c 0
247 3 l 0
242 3 l 0
242 185 l 0
242 220 240 257 227 289 c 0
220 306 210 321 198 334 c 0
186 347 170 357 154 363 c 0
121 374 84 369 55 350 c 0
27 331 8 298 7 264 c 0
7 3 l 0
Z
Spiro
3 367 v
7 367 v
7 3 v
3 3 v
7 3 v
3 3 v
3 265 v
155 366 c
247 185 [
247 3 v
242 3 v
242 185 ]
154 363 c
7 264 v
0 0 z
EndSpiro
EndSplineSet
        Fore
        SplineSet
0 366 m 0
6 366 l 0
6 0 l 0
0 0 l 0
0 366 l 0
Z
6 0 m 0
0 0 l 0
0 263 l 0
2 298 22 332 51 352 c 0
81 371 120 376 154 365 c 0
188 353 216 324 230 290 c 0
244 257 246 219 246 183 c 0
246 0 l 0
239 0 l 0
239 183 l 0
239 218 237 254 224 287 c 0
217 303 207 319 195 331 c 0
182 344 167 354 151 360 c 0
119 371 82 366 53 347 c 0
25 328 7 295 6 262 c 0
6 0 l 0
Z
Spiro
0 366 v
6 366 v
6 0 v
0 0 v
6 0 v
0 0 v
0 263 v
154 365 c
246 183 [
246 0 v
239 0 v
239 183 ]
151 360 c
6 262 v
0 0 z
EndSpiro
EndSplineSet
        EndChar
StartChar: u
Encoding: 117 117 0
Width: 289
InSpiro: 1
        Flags: H
        LayerCount: 2
        Back
        SplineSet
247 3 m 0
242 3 l 0
242 367 l 0
247 367 l 0
247 3 l 0
Z
242 107 m 0
247 107 l 0
244 82 234 58 218 39 c 0
201 21 179 8 155 3 c 0
132 -1 108 0 86 9 c 0
65 18 47 33 33 52 c 0
20 71 11 93 7 115 c 0
3 138 2 161 3 185 c 0
3 367 l 0
7 367 l 0
7 185 l 0
7 162 7 139 11 117 c 0
15 95 23 73 36 55 c 0
49 36 67 21 87 12 c 0
108 4 131 1 154 6 c 0
177 10 199 23 215 41 c 0
230 59 240 83 242 107 c 0
Z
Spiro
247 3 v
242 3 v
242 367 v
247 367 v
242 107 v
247 107 v
155 3 c
3 185 [
3 367 v
7 367 v
7 185 ]
154 6 c
0 0 z
EndSpiro
EndSplineSet
        Fore
        SplineSet
246 0 m 0
239 0 l 0
239 366 l 0
246 366 l 0
246 0 l 0
Z
239 106 m 0
246 106 l 0
244 80 233 56 217 37 c 0
200 18 177 5 153 0 c 0
130 -4 106 -2 84 6 c 0
63 15 44 30 30 49 c 0
17 68 8 90 4 113 c 0
0 136 0 159 0 183 c 0
0 366 l 0
6 366 l 0
6 183 l 0
6 160 6 138 10 116 c 0
14 93 22 72 34 54 c 0
47 35 65 20 86 11 c 0
106 3 130 0 152 5 c 0
175 9 197 22 212 40 c 0
228 58 237 82 239 106 c 0
Z
Spiro
246 0 v
239 0 v
239 366 v
246 366 v
239 106 v
246 106 v
153 0 c
0 183 [
0 366 v
6 366 v
6 183 ]
152 5 c
0 0 z
EndSpiro
EndSplineSet
        EndChar
StartChar: v
Encoding: 118 118 0
Width: 349
InSpiro: 1
        Flags: H
        LayerCount: 2
        Back
        SplineSet
3 367 m 0
7 367 l 0
155 10 l 0
302 367 l 0
307 367 l 0
157 3 l 0
152 3 l 0
3 367 l 0
Z
Spiro
3 367 v
7 367 v
155 10 v
302 367 v
307 367 v
157 3 v
152 3 v
0 0 z
EndSpiro
EndSplineSet
        Fore
        SplineSet
0 366 m 0
6 366 l 0
153 10 l 0
299 366 l 0
306 366 l 0
156 0 l 0
149 0 l 0
0 366 l 0
Z
Spiro
0 366 v
6 366 v
153 10 v
299 366 v
306 366 v
156 0 v
149 0 v
0 0 z
EndSpiro
EndSplineSet
        EndChar
StartChar: w
Encoding: 119 119 0
Width: 529
InSpiro: 1
        Flags: H
        LayerCount: 2
        Back
        SplineSet
3 367 m 0
7 367 l 0
125 11 l 0
242 367 l 0
247 367 l 0
365 11 l 0
482 367 l 0
487 367 l 0
367 3 l 0
362 3 l 0
245 358 l 0
127 3 l 0
122 3 l 0
3 367 l 0
Z
Spiro
3 367 v
7 367 v
125 11 v
242 367 v
247 367 v
365 11 v
482 367 v
487 367 v
367 3 v
362 3 v
245 358 v
127 3 v
122 3 v
0 0 z
EndSpiro
EndSplineSet
        Fore
        SplineSet
0 366 m 0
6 366 l 0
123 12 l 0
239 366 l 0
246 366 l 0
363 12 l 0
479 366 l 0
486 366 l 0
366 0 l 0
359 0 l 0
243 353 l 0
126 0 l 0
119 0 l 0
0 366 l 0
Z
Spiro
0 366 v
6 366 v
123 12 v
239 366 v
246 366 v
363 12 v
479 366 v
486 366 v
366 0 v
359 0 v
243 353 v
126 0 v
119 0 v
0 0 z
EndSpiro
EndSplineSet
        EndChar
StartChar: z
Encoding: 122 122 0
Width: 349
InSpiro: 1
        Flags: H
        LayerCount: 2
        Back
        SplineSet
3 363 m 0
3 367 l 0
307 367 l 0
307 367 l 0
9 7 l 0
307 7 l 0
307 3 l 0
3 3 l 0
3 3 l 0
300 363 l 0
3 363 l 0
Z
Spiro
3 363 v
3 367 v
307 367 v
307 367 v
9 7 v
307 7 v
307 3 v
3 3 v
3 3 v
300 363 v
0 0 z
EndSpiro
EndSplineSet
        Fore
        SplineSet
0 360 m 0
0 366 l 0
306 366 l 0
306 366 l 0
9 6 l 0
306 6 l 0
306 0 l 0
0 0 l 0
0 0 l 0
296 360 l 0
0 360 l 0
Z
Spiro
0 360 v
0 366 v
306 366 v
306 366 v
9 6 v
306 6 v
306 0 v
0 0 v
0 0 v
296 360 v
0 0 z
EndSpiro
EndSplineSet
        EndChar
